<svg xmlns="http://www.w3.org/2000/svg" version="1.1" xmlns:xlink="http://www.w3.org/1999/xlink" xmlns:svgjs="http://svgjs.dev/svgjs" width="1000" height="1000" viewBox="0 0 1000 1000"><rect width="1000" height="1000" fill="#000000"></rect><g transform="matrix(0.7,0,0,0.7,149.57575757575756,282.1265587044535)"><svg viewBox="0 0 396 247" data-background-color="#0093fb" preserveAspectRatio="xMidYMid meet" height="623" width="1000" xmlns="http://www.w3.org/2000/svg" xmlns:xlink="http://www.w3.org/1999/xlink"><g id="tight-bounds" transform="matrix(1,0,0,1,0.2400000000000091,-0.09999999999999432)"><svg viewBox="0 0 395.52 247.2" height="247.2" width="395.52"><g><svg></svg></g><g><svg viewBox="0 0 395.52 247.2" height="247.2" width="395.52"><g><g><path xmlns="http://www.w3.org/2000/svg" d="M97.9 246.894c-14.499 0-26.18-3.615-35.043-10.844-8.904-7.27-15.336-16.623-19.298-28.059-2.333-6.666-3.986-13.505-4.96-20.517h23.964c0.644 6.368 1.906 12.534 3.786 18.495 2.859 9.108 7.515 16.48 13.968 22.117 6.412 5.595 14.724 8.393 24.934 8.393 10.823 0 21.606-3.063 32.348-9.19 10.701-6.126 20.544-14.193 29.529-24.199 4.491-5.001 8.523-10.207 12.096-15.616h5.878c-4.991 8.043-10.574 15.637-16.749 22.784-9.598 11.15-20.319 20.054-32.163 26.711-11.844 6.617-24.608 9.925-38.29 9.925zM93.918 37.187c10.823-11.518 22.218-20.605 34.185-27.262 11.926-6.617 23.709-9.925 35.349-9.925 8.373 0 15.173 1.981 20.401 5.943 5.187 4.003 7.781 10.803 7.781 20.4 0 5.922-1.021 12.6-3.064 20.034-1.249 4.572-2.766 9.022-4.55 13.349l-19.194 0c0.982-1.566 1.954-3.157 2.915-4.772 3.472-5.8 6.29-11.518 8.454-17.154 2.124-5.595 3.186-10.537 3.186-14.826 0-4.084-1.164-7.413-3.492-9.986-2.369-2.532-6.208-3.798-11.518-3.798-8.781 0-17.93 3.574-27.446 10.721-9.475 7.147-18.645 16.684-27.508 28.61-2.686 3.611-5.293 7.346-7.819 11.205l-25.877 0c5.64-8.093 11.705-15.606 18.197-22.539zM178.462 247.2c0.817-7.556 3.533-13.008 8.148-16.357 4.574-3.39 10.537-5.595 17.889-6.617 7.352-1.021 15.316-1.532 23.893-1.532 3.676-7.964 7.352-17.726 11.027-29.284 0.623-1.954 1.243-3.932 1.859-5.936h18.454c-1.956 5.998-4.03 11.407-6.222 16.229-4.084 8.985-8.985 15.418-14.703 19.298 10.619 0.613 21.953 1.695 34.001 3.247 12.049 1.511 22.872 2.369 32.47 2.573-5.922 5.922-12.089 9.598-18.501 11.027-6.453 1.429-11.824 2.144-16.113 2.145-8.169 0-16.174 0.061-24.015 0.183-7.883 0.082-15.643 0.225-23.281 0.429-7.678 0.204-15.234 0.674-22.667 1.409-7.474 0.694-14.887 1.756-22.239 3.186zM277.281 41.782c2.532-10.088 4.819-18.093 6.861-24.015-10.619 0.204-19.645 0.511-27.079 0.919-7.474 0.408-14.417 1.021-20.829 1.837-6.453 0.817-13.458 1.94-21.014 3.37 1.429-7.76 7.045-13.641 16.848-17.644 9.802-3.962 25.016-5.943 45.641-5.943 10.211 0 20.585 0.408 31.123 1.226 10.497 0.817 20.135 1.695 28.916 2.634 8.781 0.899 15.52 1.756 20.217 2.573-4.901 4.901-10.047 7.903-15.438 9.006-5.432 1.144-10.19 1.715-14.275 1.715-6.331 0-12.294 0-17.889 0-5.636 0-10.803 0.102-15.5 0.307-0.817 4.288-2.042 10.966-3.675 20.033-1.187 6.619-2.536 13.927-4.047 21.926h-14.255c1.509-6.368 2.974-12.349 4.395-17.944z" fill="#ffffff" fill-rule="nonzero" stroke="none" stroke-width="1" stroke-linecap="butt" stroke-linejoin="miter" stroke-miterlimit="10" stroke-dasharray="" stroke-dashoffset="0" font-family="none" font-weight="none" font-size="none" text-anchor="none" style="mix-blend-mode: normal" data-fill-palette-color="tertiary"></path></g></g><g transform="matrix(1,0,0,1,0,67.93793972432339)"><svg viewBox="0 0 395.52 111.32412055135322" height="111.32412055135322" width="395.52"><g><svg viewBox="0 0 395.52 111.32412055135322" height="111.32412055135322" width="395.52"><g><svg viewBox="0 0 395.52 111.32412055135322" height="111.32412055135322" width="395.52"><g id="textblocktransform"><svg viewBox="0 0 395.52 111.32412055135322" height="111.32412055135322" width="395.52" id="textblock"><g><rect width="395.52" height="96.30426277139972" fill="none" stroke-width="6.2736599255567995" stroke="#ffffff" data-fill-palette-color="none" data-stroke-palette-color="tertiary"></rect><rect width="395.52" height="38.59896719903863" y="96.30426277139972" fill="#ffffff" data-fill-palette-color="tertiary"></rect></g><g><svg viewBox="0 0 395.52 95.30426277139972" height="95.30426277139972" width="395.52"><g transform="matrix(1,0,0,1,16.4231935224,16.423193522399995)"><svg width="362.6736129552" viewBox="1.100000023841858 -35.95000076293945 234.26998901367188 40.35000228881836" height="62.45787572659973" data-palette-color="#ffffff"><path d="M10.95 4.35L10.95 4.35Q7.4 4.35 5.23 2.58 3.05 0.8 2.08-2 1.1-4.8 1.1-7.85L1.1-7.85Q1.1-11.8 2.3-15.8 3.5-19.8 5.58-23.43 7.65-27.05 10.3-29.88 12.95-32.7 15.88-34.33 18.8-35.95 21.65-35.95L21.65-35.95Q23.7-35.95 24.98-34.98 26.25-34 26.25-31.65L26.25-31.65Q26.25-30.2 25.75-28.38 25.25-26.55 24.4-24.88 23.55-23.2 22.53-22.1 21.5-21 20.45-21L20.45-21Q20.05-21 19.63-21.25 19.2-21.5 18.9-22.15L18.9-22.15Q19.65-23 20.58-24.28 21.5-25.55 22.35-26.98 23.2-28.4 23.73-29.78 24.25-31.15 24.25-32.2L24.25-32.2Q24.25-33.2 23.68-33.83 23.1-34.45 21.8-34.45L21.8-34.45Q19.65-34.45 17.32-32.7 15-30.95 12.83-28.03 10.65-25.1 8.9-21.5 7.15-17.9 6.13-14.15 5.1-10.4 5.1-7L5.1-7Q5.1-4.55 5.8-2.33 6.5-0.1 8.08 1.28 9.65 2.65 12.15 2.65L12.15 2.65Q14.8 2.65 17.43 1.15 20.05-0.35 22.25-2.8 24.45-5.25 25.75-8.1L25.75-8.1 26.45-7.6Q24.8-4.35 22.45-1.63 20.1 1.1 17.2 2.73 14.3 4.35 10.95 4.35ZM27.05 1.9L27.05 1.9Q26.1 1.9 25.55 0.3 25-1.3 25-3.3L25-3.3Q25-5.7 25.8-9 26.6-12.3 27.9-15.95 29.2-19.6 30.82-23.1 32.45-26.6 34.15-29.45 35.85-32.3 37.35-34 38.85-35.7 39.95-35.7L39.95-35.7Q40.85-35.7 41.22-34.63 41.6-33.55 41.6-32.55L41.6-32.55Q41.6-31.15 40.97-29.15 40.35-27.15 39.25-24.88 38.15-22.6 36.7-20.4 35.25-18.2 33.55-16.38 31.85-14.55 30.1-13.5L30.1-13.5Q29.5-12.05 29.07-10.25 28.65-8.45 28.45-6.73 28.25-5 28.25-3.65L28.25-3.65Q28.25-3.1 28.27-2.7 28.3-2.3 28.35-1.95L28.35-1.95Q29.05-4 29.87-5.93 30.7-7.85 31.65-9.47 32.6-11.1 33.67-12.33 34.75-13.55 35.95-14.23 37.15-14.9 38.5-14.9L38.5-14.9Q39.9-14.9 40.72-14.23 41.55-13.55 41.92-12.53 42.3-11.5 42.3-10.4L42.3-10.4Q42.3-8.85 41.77-7.4 41.25-5.95 40.7-4.6 40.15-3.25 40.15-2L40.15-2Q40.15-1 40.57-0.55 41-0.1 41.65-0.1L41.65-0.1Q42.8-0.1 44.22-1.2 45.65-2.3 47.05-4.13 48.45-5.95 49.45-8.1L49.45-8.1 50.1-7.5Q49.05-5.05 47.55-3.08 46.05-1.1 44.25 0.05 42.45 1.2 40.5 1.2L40.5 1.2Q38.8 1.2 37.92 0.3 37.05-0.6 37.05-1.95L37.05-1.95Q37.05-3 37.45-4.3 37.85-5.6 38.22-6.95 38.6-8.3 38.6-9.5L38.6-9.5Q38.6-10.8 38.05-11.35 37.5-11.9 36.7-11.9L36.7-11.9Q35.45-11.9 34.45-10.9 33.45-9.9 32.62-8.33 31.8-6.75 31.07-5 30.35-3.25 29.7-1.68 29.05-0.1 28.4 0.9 27.75 1.9 27.05 1.9ZM30.75-15.45L30.75-15.45Q32.15-16.55 33.47-18.25 34.8-19.95 35.95-21.88 37.1-23.8 38-25.65 38.9-27.5 39.4-29 39.9-30.5 39.9-31.25L39.9-31.25Q39.9-31.5 39.85-31.58 39.8-31.65 39.7-31.65L39.7-31.65Q39.35-31.65 38.27-30.28 37.2-28.9 35.8-26.6 34.4-24.3 33.05-21.4 31.7-18.5 30.75-15.45ZM53.9 2.2L53.9 2.2Q50.85 2.2 49.32 0.53 47.8-1.15 47.8-3.6L47.8-3.6Q47.8-5.85 48.92-8.35 50.05-10.85 51.92-13.05 53.8-15.25 56.05-16.63 58.3-18 60.5-18L60.5-18Q61.65-18 62.62-17.4 63.6-16.8 63.6-14.95L63.6-14.95Q63.6-13.05 62.47-11.38 61.35-9.7 59.52-8.4 57.7-7.1 55.52-6.28 53.35-5.45 51.2-5.25L51.2-5.25Q51.1-4.75 51.05-4.3 51-3.85 51-3.45L51-3.45Q51-2.7 51.17-1.95 51.35-1.2 51.8-0.58 52.25 0.05 53.02 0.4 53.8 0.75 54.95 0.75L54.95 0.75Q57.1 0.75 59.2-0.48 61.3-1.7 63.1-3.7 64.9-5.7 66.15-8.1L66.15-8.1 66.75-7.65Q65.4-4.65 63.32-2.45 61.25-0.25 58.82 0.98 56.4 2.2 53.9 2.2ZM51.45-6.2L51.45-6.2Q52.8-6.65 54.5-7.53 56.2-8.4 57.77-9.6 59.35-10.8 60.37-12.25 61.4-13.7 61.4-15.3L61.4-15.3Q61.4-15.85 61.2-16.15 61-16.45 60.35-16.45L60.35-16.45Q59.15-16.45 57.8-15.53 56.45-14.6 55.2-13.1 53.95-11.6 52.95-9.8 51.95-8 51.45-6.2ZM70.39 2.55L70.39 2.55Q68.04 2.55 66.67 1.53 65.29 0.5 64.72-1 64.14-2.5 64.14-4L64.14-4Q64.14-5.5 64.54-6.3 64.94-7.1 65.52-7.5 66.09-7.9 66.62-8.1 67.14-8.3 67.34-8.5L67.34-8.5Q68.84-10.15 70.09-11.95 71.34-13.75 72.29-15.75L72.29-15.75 72.29-16.35Q72.29-18.2 72.92-18.98 73.54-19.75 74.24-19.75L74.24-19.75Q74.64-19.75 74.84-19.55 75.04-19.35 75.04-19.1L75.04-19.1Q75.04-18.85 74.89-18.3 74.74-17.75 74.74-16.9L74.74-16.9Q74.74-15.25 75.39-13.33 76.04-11.4 76.69-9.28 77.34-7.15 77.34-4.85L77.34-4.85Q77.34-4.2 77.27-3.58 77.19-2.95 77.04-2.4L77.04-2.4Q78.79-2.7 80.34-3.98 81.89-5.25 83.34-8.05L83.34-8.05 83.79-7.55Q82.84-4.8 80.94-3.38 79.04-1.95 76.79-1.6L76.79-1.6Q75.99 0.55 74.27 1.55 72.54 2.55 70.39 2.55ZM70.49 0.8L70.49 0.8Q71.09 0.8 72.09 0.4 73.09 0 73.64-1.65L73.64-1.65Q71.54-2.05 69.92-3.3 68.29-4.55 67.49-5.8L67.49-5.8Q66.39-5.75 66.39-4.05L66.39-4.05Q66.39-2.25 67.47-0.73 68.54 0.8 70.49 0.8ZM73.89-2.45L73.89-2.45Q73.99-2.95 74.04-3.5 74.09-4.05 74.09-4.8L74.09-4.8Q74.09-7.15 73.52-9.47 72.94-11.8 72.54-13.85L72.54-13.85Q71.39-11.95 70.12-10.23 68.84-8.5 67.69-7.35L67.69-7.35Q68.44-5.75 70.02-4.35 71.59-2.95 73.89-2.45ZM84.74 1.9L84.74 1.9Q83.79 1.9 83.24 0.3 82.69-1.3 82.69-3.3L82.69-3.3Q82.69-5.7 83.49-9 84.29-12.3 85.59-15.95 86.89-19.6 88.52-23.1 90.14-26.6 91.84-29.45 93.54-32.3 95.04-34 96.54-35.7 97.64-35.7L97.64-35.7Q98.54-35.7 98.92-34.63 99.29-33.55 99.29-32.55L99.29-32.55Q99.29-31.15 98.67-29.15 98.04-27.15 96.94-24.88 95.84-22.6 94.39-20.4 92.94-18.2 91.24-16.38 89.54-14.55 87.79-13.5L87.79-13.5Q87.19-12.05 86.77-10.25 86.34-8.45 86.14-6.73 85.94-5 85.94-3.65L85.94-3.65Q85.94-3.1 85.97-2.7 85.99-2.3 86.04-1.95L86.04-1.95Q86.74-4 87.57-5.93 88.39-7.85 89.34-9.47 90.29-11.1 91.37-12.33 92.44-13.55 93.64-14.23 94.84-14.9 96.19-14.9L96.19-14.9Q97.59-14.9 98.42-14.23 99.24-13.55 99.62-12.53 99.99-11.5 99.99-10.4L99.99-10.4Q99.99-8.85 99.47-7.4 98.94-5.95 98.39-4.6 97.84-3.25 97.84-2L97.84-2Q97.84-1 98.27-0.55 98.69-0.1 99.34-0.1L99.34-0.1Q100.49-0.1 101.92-1.2 103.34-2.3 104.74-4.13 106.14-5.95 107.14-8.1L107.14-8.1 107.79-7.5Q106.74-5.05 105.24-3.08 103.74-1.1 101.94 0.05 100.14 1.2 98.19 1.2L98.19 1.2Q96.49 1.2 95.62 0.3 94.74-0.6 94.74-1.95L94.74-1.95Q94.74-3 95.14-4.3 95.54-5.6 95.92-6.95 96.29-8.3 96.29-9.5L96.29-9.5Q96.29-10.8 95.74-11.35 95.19-11.9 94.39-11.9L94.39-11.9Q93.14-11.9 92.14-10.9 91.14-9.9 90.32-8.33 89.49-6.75 88.77-5 88.04-3.25 87.39-1.68 86.74-0.1 86.09 0.9 85.44 1.9 84.74 1.9ZM88.44-15.45L88.44-15.45Q89.84-16.55 91.17-18.25 92.49-19.95 93.64-21.88 94.79-23.8 95.69-25.65 96.59-27.5 97.09-29 97.59-30.5 97.59-31.25L97.59-31.25Q97.59-31.5 97.54-31.58 97.49-31.65 97.39-31.65L97.39-31.65Q97.04-31.65 95.97-30.28 94.89-28.9 93.49-26.6 92.09-24.3 90.74-21.4 89.39-18.5 88.44-15.45ZM109.79 1.3L109.79 1.3Q107.84 1.3 106.89 0.08 105.94-1.15 105.94-2.9L105.94-2.9Q105.94-4.05 106.36-5.8 106.79-7.55 107.49-9.47 108.19-11.4 109.11-13.1 110.04-14.8 111.09-15.88 112.14-16.95 113.14-16.95L113.14-16.95Q113.59-16.95 113.91-16.68 114.24-16.4 114.24-15.85L114.24-15.85Q114.24-15.25 113.46-13.9 112.69-12.55 111.64-10.8 110.59-9.05 109.81-7.13 109.04-5.2 109.04-3.45L109.04-3.45Q109.04-1.65 109.64-1.05 110.24-0.45 111.49-0.45L111.49-0.45Q113.19-0.45 115.11-2.15 117.04-3.85 119.19-8.1L119.19-8.1 119.64-7.6Q118.19-3.3 115.46-1 112.74 1.3 109.79 1.3ZM115.79-21.6L115.79-21.6Q114.99-21.6 114.36-22 113.74-22.4 113.74-23.25L113.74-23.25Q113.74-24.3 114.96-25.08 116.19-25.85 117.39-25.85L117.39-25.85Q118.14-25.85 118.59-25.5 119.04-25.15 119.04-24.3L119.04-24.3Q119.04-23.35 118.01-22.48 116.99-21.6 115.79-21.6ZM126.89 1.3L126.89 1.3Q125.19 1.3 124.21 0.4 123.24-0.5 123.24-1.95L123.24-1.95Q123.24-3.45 123.94-5.1 124.64-6.75 125.31-8.38 125.99-10 125.99-11.3L125.99-11.3Q125.99-12.9 125.06-13.68 124.14-14.45 123.19-15.1L123.19-15.1Q122.04-12.15 120.79-9.5 119.54-6.85 118.74-5.5L118.74-5.5 118.29-6.35Q118.99-7.65 120.11-10.15 121.24-12.65 122.34-15.85L122.34-15.85Q121.84-16.35 121.84-17.05L121.84-17.05Q121.84-18.55 122.69-19.5 123.54-20.45 123.94-20.45L123.94-20.45Q124.49-20.45 124.56-19.98 124.64-19.5 124.64-19.25L124.64-19.25Q124.64-19 124.36-18.28 124.09-17.55 124.09-17.4L124.09-17.4Q124.09-16.7 124.86-16.13 125.64-15.55 126.64-14.83 127.64-14.1 128.41-13.08 129.19-12.05 129.19-10.45L129.19-10.45Q129.19-8.95 128.56-7.4 127.94-5.85 127.31-4.45 126.69-3.05 126.69-2L126.69-2Q126.69-1.1 127.14-0.8 127.59-0.5 128.19-0.5L128.19-0.5Q129.39-0.5 130.66-1.25 131.94-2 133.14-3.15 134.34-4.3 135.29-5.58 136.24-6.85 136.69-7.95L136.69-7.95 137.34-7.45Q136.39-5.35 134.74-3.33 133.09-1.3 131.06 0 129.04 1.3 126.89 1.3ZM141.03 2.2L141.03 2.2Q137.98 2.2 136.46 0.53 134.93-1.15 134.93-3.6L134.93-3.6Q134.93-5.85 136.06-8.35 137.18-10.85 139.06-13.05 140.93-15.25 143.18-16.63 145.43-18 147.63-18L147.63-18Q148.78-18 149.76-17.4 150.73-16.8 150.73-14.95L150.73-14.95Q150.73-13.05 149.61-11.38 148.48-9.7 146.66-8.4 144.83-7.1 142.66-6.28 140.48-5.45 138.33-5.25L138.33-5.25Q138.23-4.75 138.18-4.3 138.13-3.85 138.13-3.45L138.13-3.45Q138.13-2.7 138.31-1.95 138.48-1.2 138.93-0.58 139.38 0.05 140.16 0.4 140.93 0.75 142.08 0.75L142.08 0.75Q144.23 0.75 146.33-0.48 148.43-1.7 150.23-3.7 152.03-5.7 153.28-8.1L153.28-8.1 153.88-7.65Q152.53-4.65 150.46-2.45 148.38-0.25 145.96 0.98 143.53 2.2 141.03 2.2ZM138.58-6.2L138.58-6.2Q139.93-6.65 141.63-7.53 143.33-8.4 144.91-9.6 146.48-10.8 147.51-12.25 148.53-13.7 148.53-15.3L148.53-15.3Q148.53-15.85 148.33-16.15 148.13-16.45 147.48-16.45L147.48-16.45Q146.28-16.45 144.93-15.53 143.58-14.6 142.33-13.1 141.08-11.6 140.08-9.8 139.08-8 138.58-6.2ZM163.38 4.4L163.38 4.4Q163.58 2.55 164.7 1.73 165.83 0.9 167.63 0.65 169.43 0.4 171.53 0.4L171.53 0.4Q172.43-1.55 173.33-4.38 174.23-7.2 175.05-10.45 175.88-13.7 176.68-17.07 177.48-20.45 178.18-23.55 178.88-26.65 179.5-29.13 180.13-31.6 180.63-33.05L180.63-33.05Q178.03-33 176.2-32.9 174.38-32.8 172.8-32.6 171.23-32.4 169.38-32.05L169.38-32.05Q169.73-33.95 172.13-34.93 174.53-35.9 179.58-35.9L179.58-35.9Q182.08-35.9 184.65-35.7 187.23-35.5 189.38-35.27 191.53-35.05 192.68-34.85L192.68-34.85Q191.48-33.65 190.15-33.38 188.83-33.1 187.83-33.1L187.83-33.1Q186.28-33.1 184.9-33.1 183.53-33.1 182.38-33.05L182.38-33.05Q182.18-32 181.78-29.78 181.38-27.55 180.83-24.68 180.28-21.8 179.68-18.73 179.08-15.65 178.5-12.88 177.93-10.1 177.43-8.1L177.43-8.1Q176.63-4.9 175.63-2.7 174.63-0.5 173.23 0.45L173.23 0.45Q175.83 0.6 178.78 0.98 181.73 1.35 184.08 1.4L184.08 1.4Q182.63 2.85 181.05 3.2 179.48 3.55 178.43 3.55L178.43 3.55Q176.43 3.55 174.5 3.58 172.58 3.6 170.7 3.65 168.83 3.7 167 3.88 165.18 4.05 163.38 4.4ZM203.43 1L203.43 1Q201.68 1 200.8 0.1 199.93-0.8 199.93-2.2L199.93-2.2Q199.93-3.25 200.3-4.4 200.68-5.55 201.03-6.78 201.38-8 201.38-9.15L201.38-9.15Q201.38-10.55 200.8-11.08 200.23-11.6 199.38-11.6L199.38-11.6Q197.83-11.6 196.23-10.33 194.63-9.05 193.13-7.08 191.63-5.1 190.33-3 189.03-0.9 188.03 0.75L188.03 0.75Q187.23 0.75 186.5 0.48 185.78 0.2 185.38-0.35L185.38-0.35Q185.38-0.6 185.9-1.9 186.43-3.2 187.13-5.1 187.83-7 188.38-9 188.93-11 188.93-12.65L188.93-12.65Q189.23-13 189.88-13.35 190.53-13.7 191.23-13.7L191.23-13.7Q192.58-13.7 192.58-12.4L192.58-12.4Q192.58-11.6 192.13-9.73 191.68-7.85 190.98-5.8L190.98-5.8Q192.33-7.85 194-9.88 195.68-11.9 197.58-13.25 199.48-14.6 201.38-14.6L201.38-14.6Q203.33-14.6 204.2-13.2 205.08-11.8 205.08-10.1L205.08-10.1Q205.08-8.55 204.58-7.23 204.08-5.9 203.55-4.67 203.03-3.45 203.03-2.2L203.03-2.2Q203.03-1.15 203.45-0.73 203.88-0.3 204.53-0.3L204.53-0.3Q205.78-0.3 207.03-1.48 208.28-2.65 209.45-4.45 210.63-6.25 211.53-8.1L211.53-8.1 212.08-7.45Q211.03-5 209.73-3.1 208.43-1.2 206.88-0.1 205.33 1 203.43 1ZM226.72 1L226.72 1Q224.97 1 224.1 0.1 223.22-0.8 223.22-2.2L223.22-2.2Q223.22-3.25 223.6-4.4 223.97-5.55 224.32-6.78 224.67-8 224.67-9.15L224.67-9.15Q224.67-10.55 224.1-11.08 223.52-11.6 222.67-11.6L222.67-11.6Q221.12-11.6 219.52-10.33 217.92-9.05 216.42-7.08 214.92-5.1 213.62-3 212.32-0.9 211.32 0.75L211.32 0.75Q210.52 0.75 209.8 0.48 209.07 0.2 208.67-0.35L208.67-0.35Q208.67-0.6 209.2-1.9 209.72-3.2 210.42-5.1 211.12-7 211.67-9 212.22-11 212.22-12.65L212.22-12.65Q212.52-13 213.17-13.35 213.82-13.7 214.52-13.7L214.52-13.7Q215.87-13.7 215.87-12.4L215.87-12.4Q215.87-11.6 215.42-9.73 214.97-7.85 214.27-5.8L214.27-5.8Q215.62-7.85 217.3-9.88 218.97-11.9 220.87-13.25 222.77-14.6 224.67-14.6L224.67-14.6Q226.62-14.6 227.5-13.2 228.37-11.8 228.37-10.1L228.37-10.1Q228.37-8.55 227.87-7.23 227.37-5.9 226.85-4.67 226.32-3.45 226.32-2.2L226.32-2.2Q226.32-1.15 226.75-0.73 227.17-0.3 227.82-0.3L227.82-0.3Q229.07-0.3 230.32-1.48 231.57-2.65 232.75-4.45 233.92-6.25 234.82-8.1L234.82-8.1 235.37-7.45Q234.32-5 233.02-3.1 231.72-1.2 230.17-0.1 228.62 1 226.72 1Z" opacity="1" transform="matrix(1,0,0,1,0,0)" fill="#ffffff" class="wordmark-text-0" data-fill-palette-color="primary" id="text-0"></path></svg></g></svg></g><g transform="matrix(1,0,0,1,75.54432,95.30426277139972)"><svg viewBox="0 0 244.43135999999998 16.019857779953494" height="16.019857779953494" width="244.43135999999998"><g transform="matrix(1,0,0,1,20,3.2)"><svg width="204.43135999999998" viewBox="2.75 -32.5 817 38.45000076293945" height="9.619857779953493" data-palette-color="#0093fb"><path d="M6.7-25L7.05-24.6 5.65-14.7 3.15-14.35 2.75-14.7 2.8-24.7 6.7-25ZM13.1-25L13.45-24.6 12-14.7 9.5-14.35 9.1-14.7 9.2-24.7 13.1-25ZM35.15-12.85Q38.55-7.4 43.2-1.2L43.2-1.2 43.15-0.6Q40.75 0.2 38.2 0.45L38.2 0.45 37.6 0.05Q33.45-6.75 30.9-11.45L30.9-11.45 25.45-11.45 25.45-10.1 25.7 0 20.45 0 20.8-9.65 20.45-32.1 31.35-32.15Q36.2-32.15 38.85-29.73 41.5-27.3 41.5-22.8L41.5-22.8Q41.5-19.6 39.82-17.03 38.15-14.45 35.15-12.85L35.15-12.85ZM25.7-27.95L25.55-15.65 31.05-15.5Q36.1-17.05 36.1-22.4L36.1-22.4Q36.1-25.2 34.57-26.6 33.05-28 29.95-28.1L29.95-28.1 25.7-27.95ZM58.15-3.8L64.9-4 65.25-3.65 64.84 0 48.8 0 49-7.5 48.8-25.05 65-25.05 65.3-24.65 64.95-21 58.6-21.25 53.6-21.2 53.5-14.7 58.3-14.65 62.65-14.8 62.9-14.4 62.59-10.7 57.9-10.85 53.45-10.8 53.4-7.95 53.5-3.85 58.15-3.8ZM79.04-25.35Q82.24-25.35 85.44-24.1L85.44-24.1 84.69-19.55 83.94-19.4Q81.04-21.7 78.44-21.7L78.44-21.7Q76.59-21.7 75.52-20.75 74.44-19.8 74.44-18.55L74.44-18.55Q74.44-17.3 75.57-16.48 76.69-15.65 79.09-14.65L79.09-14.65Q81.34-13.7 82.72-12.88 84.09-12.05 85.09-10.7 86.09-9.35 86.09-7.35L86.09-7.35Q86.09-5.3 85.02-3.55 83.94-1.8 81.82-0.73 79.69 0.35 76.69 0.35L76.69 0.35Q74.89 0.35 72.89-0.05 70.89-0.45 69.04-1.25L69.04-1.25 69.69-6.1 70.24-6.4Q71.69-4.95 73.67-4.13 75.64-3.3 77.29-3.3L77.29-3.3Q79.09-3.3 80.22-4.23 81.34-5.15 81.34-6.5L81.34-6.5Q81.34-7.85 80.19-8.68 79.04-9.5 76.64-10.5L76.64-10.5Q74.49-11.45 73.09-12.28 71.69-13.1 70.72-14.48 69.74-15.85 69.74-17.85L69.74-17.85Q69.74-19.95 70.87-21.65 71.99-23.35 74.12-24.35 76.24-25.35 79.04-25.35L79.04-25.35ZM108.14-25.05L108.39-24.65 108.09-20.8 103.24-21.15 101.14-21.15 101.04-7.95 101.19 0 96.39 0 96.59-7.5 96.49-21.15 94.44-21.15 89.49-20.8 89.14-21.2 89.49-25.05 108.14-25.05ZM112.34-5.3Q114.49-3.75 114.49-1.55L114.49-1.55Q114.49 2.15 109.19 5.95L109.19 5.95 107.54 4.45 107.49 4.05Q110.24 1.8 110.24-0.55L110.24-0.55Q110.24-2.1 108.69-3.2L108.69-3.2 108.69-3.65Q110.54-4.85 112.34-5.3L112.34-5.3ZM144.08-12.85Q147.48-7.4 152.13-1.2L152.13-1.2 152.08-0.6Q149.68 0.2 147.13 0.45L147.13 0.45 146.53 0.05Q142.38-6.75 139.83-11.45L139.83-11.45 134.38-11.45 134.38-10.1 134.63 0 129.38 0 129.73-9.65 129.38-32.1 140.28-32.15Q145.13-32.15 147.78-29.73 150.43-27.3 150.43-22.8L150.43-22.8Q150.43-19.6 148.76-17.03 147.08-14.45 144.08-12.85L144.08-12.85ZM134.63-27.95L134.48-15.65 139.98-15.5Q145.03-17.05 145.03-22.4L145.03-22.4Q145.03-25.2 143.51-26.6 141.98-28 138.88-28.1L138.88-28.1 134.63-27.95ZM167.08-3.8L173.83-4 174.18-3.65 173.78 0 157.73 0 157.93-7.5 157.73-25.05 173.93-25.05 174.23-24.65 173.88-21 167.53-21.25 162.53-21.2 162.43-14.7 167.23-14.65 171.58-14.8 171.83-14.4 171.53-10.7 166.83-10.85 162.38-10.8 162.33-7.95 162.43-3.85 167.08-3.8ZM193.73-4L194.03-3.6 193.68 0 179.78 0 179.98-7.5 179.78-25.05 184.68-25.05 184.43-7.95 184.48-4 193.73-4ZM210.98-25.05L219.43 0 214.58 0 213.93-3.1 213.03-5.85 207.43-5.9 202.43-5.85 201.48-3.35 200.78 0 196.03 0 205.38-25.05 210.98-25.05ZM207.78-9.55L211.78-9.6 208.23-20.55 207.88-20.55 203.83-9.6 207.78-9.55ZM244.52-25.05L236.32-13.15 245.12 0 239.32 0 238.12-2.4 233.07-9.35 227.72-2.15 226.57 0 221.57 0 230.27-12.45 221.67-25.05 227.57-25.05 228.72-22.65 233.47-16.1 238.32-22.8 239.37-25.05 244.52-25.05ZM253.32-5.3Q255.47-3.75 255.47-1.55L255.47-1.55Q255.47 2.15 250.17 5.95L250.17 5.95 248.52 4.45 248.47 4.05Q251.22 1.8 251.22-0.55L251.22-0.55Q251.22-2.1 249.67-3.2L249.67-3.2 249.67-3.65Q251.52-4.85 253.32-5.3L253.32-5.3ZM285.06-12.85Q288.46-7.4 293.12-1.2L293.12-1.2 293.06-0.6Q290.67 0.2 288.12 0.45L288.12 0.45 287.51 0.05Q283.37-6.75 280.81-11.45L280.81-11.45 275.37-11.45 275.37-10.1 275.62 0 270.37 0 270.71-9.65 270.37-32.1 281.26-32.15Q286.12-32.15 288.76-29.73 291.42-27.3 291.42-22.8L291.42-22.8Q291.42-19.6 289.74-17.03 288.06-14.45 285.06-12.85L285.06-12.85ZM275.62-27.95L275.46-15.65 280.96-15.5Q286.01-17.05 286.01-22.4L286.01-22.4Q286.01-25.2 284.49-26.6 282.96-28 279.87-28.1L279.87-28.1 275.62-27.95ZM308.06-3.8L314.81-4 315.16-3.65 314.76 0 298.71 0 298.91-7.5 298.71-25.05 314.91-25.05 315.21-24.65 314.86-21 308.51-21.25 303.51-21.2 303.41-14.7 308.21-14.65 312.56-14.8 312.81-14.4 312.51-10.7 307.81-10.85 303.36-10.8 303.31-7.95 303.41-3.85 308.06-3.8ZM330.41-25.1Q334.46-25.1 336.69-23.13 338.91-21.15 338.91-17.5L338.91-17.5Q338.91-13.2 336.06-10.73 333.21-8.25 328.36-8.25L328.36-8.25 325.51-8.25 325.51-7.95 325.71 0 320.91 0 321.11-7.5 320.91-25.05 330.41-25.1ZM329.56-11.85Q333.86-12.75 333.86-17.1L333.86-17.1Q333.86-19.25 332.66-20.3 331.46-21.35 328.96-21.45L328.96-21.45 325.71-21.35 325.56-11.95 329.56-11.85ZM354.16-3.8L360.91-4 361.26-3.65 360.86 0 344.81 0 345.01-7.5 344.81-25.05 361.01-25.05 361.31-24.65 360.96-21 354.61-21.25 349.61-21.2 349.51-14.7 354.31-14.65 358.66-14.8 358.91-14.4 358.61-10.7 353.91-10.85 349.46-10.8 349.41-7.95 349.51-3.85 354.16-3.8ZM378.85-25.05L387.3 0 382.45 0 381.8-3.1 380.9-5.85 375.3-5.9 370.3-5.85 369.35-3.35 368.65 0 363.9 0 373.25-25.05 378.85-25.05ZM375.65-9.55L379.65-9.6 376.1-20.55 375.75-20.55 371.7-9.6 375.65-9.55ZM406.55-25.05L406.8-24.65 406.5-20.8 401.65-21.15 399.55-21.15 399.45-7.95 399.6 0 394.8 0 395-7.5 394.9-21.15 392.85-21.15 387.9-20.8 387.55-21.2 387.9-25.05 406.55-25.05ZM412.05-5.4Q413.3-5.4 414-4.67 414.7-3.95 414.7-2.65L414.7-2.65Q414.7-1.3 413.95-0.5 413.2 0.3 411.9 0.3L411.9 0.3Q410.6 0.3 409.88-0.45 409.15-1.2 409.15-2.5L409.15-2.5Q409.15-3.8 409.93-4.6 410.7-5.4 412.05-5.4L412.05-5.4ZM412.05-18.75Q413.3-18.75 414-18.03 414.7-17.3 414.7-16L414.7-16Q414.7-14.65 413.95-13.85 413.2-13.05 411.9-13.05L411.9-13.05Q410.6-13.05 409.88-13.8 409.15-14.55 409.15-15.85L409.15-15.85Q409.15-17.15 409.93-17.95 410.7-18.75 412.05-18.75L412.05-18.75ZM441.39-11.4L441.34-9.2 441.54 0 436.39 0 436.64-9.2 436.59-11.15 426.44-32.1 431.94-32.1 432.59-30.1 438.94-16.65 439.34-16.65 446.39-30 447.19-32.1 452.54-32.1 441.39-11.4ZM465.49-25.4Q470.99-25.4 474.02-22.18 477.04-18.95 477.04-13.1L477.04-13.1Q477.04-6.6 473.82-3.1 470.59 0.4 464.64 0.4L464.64 0.4Q459.09 0.4 456.09-2.9 453.09-6.2 453.09-12.25L453.09-12.25Q453.09-18.55 456.32-21.98 459.54-25.4 465.49-25.4L465.49-25.4ZM465.04-21.45Q461.44-21.45 459.77-19.43 458.09-17.4 458.09-12.85L458.09-12.85Q458.09-7.8 459.74-5.65 461.39-3.5 464.99-3.5L464.99-3.5Q468.64-3.5 470.34-5.53 472.04-7.55 472.04-12.15L472.04-12.15Q472.04-17.15 470.39-19.3 468.74-21.45 465.04-21.45L465.04-21.45ZM503.24-25.05L503.09-12.3 503.04-8.6Q503.09-4.35 500.34-2 497.59 0.35 492.54 0.35L492.54 0.35Q487.54 0.35 484.94-1.98 482.34-4.3 482.44-8.6L482.44-8.6 482.49-12.45 482.34-25.05 487.19-25.05 486.94-9.35Q486.89-3.65 492.74-3.65L492.74-3.65Q495.64-3.65 497.14-5.08 498.64-6.5 498.59-9.35L498.59-9.35 498.39-25.05 503.24-25.05ZM523.69-10Q526.59-5.65 530.24-1.15L530.24-1.15 530.19-0.55Q527.59 0.2 525.64 0.35L525.64 0.35 524.89-0.1Q521.24-6 519.74-8.7L519.74-8.7 515.34-8.65 515.34-7.95 515.54 0 510.74 0 510.94-7.5 510.74-25.05 520.24-25.1Q524.29-25.1 526.51-23.18 528.74-21.25 528.74-17.75L528.74-17.75Q528.74-15.3 527.41-13.3 526.09-11.3 523.69-10L523.69-10ZM515.54-21.3L515.39-12.5 519.74-12.35Q523.69-13.5 523.69-17.3L523.69-17.3Q523.69-19.35 522.49-20.33 521.29-21.3 518.84-21.4L518.84-21.4 515.54-21.3ZM556.38-32.5Q563.03-32.5 566.63-28.4 570.23-24.3 570.23-16.7L570.23-16.7Q570.23-8.5 566.38-4.03 562.53 0.45 555.43 0.45L555.43 0.45Q548.83 0.45 545.26-3.78 541.68-8 541.68-15.75L541.68-15.75Q541.68-23.8 545.51-28.15 549.33-32.5 556.38-32.5L556.38-32.5ZM555.98-28.3Q551.43-28.3 549.21-25.38 546.98-22.45 546.98-16.35L546.98-16.35Q546.98-9.7 549.16-6.63 551.33-3.55 555.88-3.55L555.88-3.55Q560.48-3.55 562.68-6.5 564.88-9.45 564.88-15.7L564.88-15.7Q564.88-22.25 562.71-25.28 560.53-28.3 555.98-28.3L555.98-28.3ZM587.18-25.05L595.63 0 590.78 0 590.13-3.1 589.23-5.85 583.63-5.9 578.63-5.85 577.68-3.35 576.98 0 572.23 0 581.58-25.05 587.18-25.05ZM583.98-9.55L587.98-9.6 584.43-20.55 584.08-20.55 580.03-9.6 583.98-9.55ZM609.33-25.35Q612.53-25.35 615.73-24.1L615.73-24.1 614.98-19.55 614.23-19.4Q611.33-21.7 608.73-21.7L608.73-21.7Q606.88-21.7 605.8-20.75 604.73-19.8 604.73-18.55L604.73-18.55Q604.73-17.3 605.85-16.48 606.98-15.65 609.38-14.65L609.38-14.65Q611.63-13.7 613-12.88 614.38-12.05 615.38-10.7 616.38-9.35 616.38-7.35L616.38-7.35Q616.38-5.3 615.3-3.55 614.23-1.8 612.1-0.73 609.98 0.35 606.98 0.35L606.98 0.35Q605.18 0.35 603.18-0.05 601.18-0.45 599.33-1.25L599.33-1.25 599.98-6.1 600.53-6.4Q601.98-4.95 603.95-4.13 605.93-3.3 607.58-3.3L607.58-3.3Q609.38-3.3 610.5-4.23 611.63-5.15 611.63-6.5L611.63-6.5Q611.63-7.85 610.48-8.68 609.33-9.5 606.93-10.5L606.93-10.5Q604.78-11.45 603.38-12.28 601.98-13.1 601-14.48 600.03-15.85 600.03-17.85L600.03-17.85Q600.03-19.95 601.15-21.65 602.28-23.35 604.4-24.35 606.53-25.35 609.33-25.35L609.33-25.35ZM627.77-25.05L627.52-7.95 627.72 0 622.92 0 623.12-7.5 622.92-25.05 627.77-25.05ZM644.32-25.35Q647.52-25.35 650.72-24.1L650.72-24.1 649.97-19.55 649.22-19.4Q646.32-21.7 643.72-21.7L643.72-21.7Q641.87-21.7 640.8-20.75 639.72-19.8 639.72-18.55L639.72-18.55Q639.72-17.3 640.85-16.48 641.97-15.65 644.37-14.65L644.37-14.65Q646.62-13.7 648-12.88 649.37-12.05 650.37-10.7 651.37-9.35 651.37-7.35L651.37-7.35Q651.37-5.3 650.3-3.55 649.22-1.8 647.1-0.73 644.97 0.35 641.97 0.35L641.97 0.35Q640.17 0.35 638.17-0.05 636.17-0.45 634.32-1.25L634.32-1.25 634.97-6.1 635.52-6.4Q636.97-4.95 638.95-4.13 640.92-3.3 642.57-3.3L642.57-3.3Q644.37-3.3 645.5-4.23 646.62-5.15 646.62-6.5L646.62-6.5Q646.62-7.85 645.47-8.68 644.32-9.5 641.92-10.5L641.92-10.5Q639.77-11.45 638.37-12.28 636.97-13.1 636-14.48 635.02-15.85 635.02-17.85L635.02-17.85Q635.02-19.95 636.15-21.65 637.27-23.35 639.4-24.35 641.52-25.35 644.32-25.35L644.32-25.35ZM679.82-32.1L690.17 0 684.87 0 684.12-3.6 682.72-8.05 675.92-8.2 669.77-8.05 668.27-3.85 667.47 0 662.32 0 673.77-32.1 679.82-32.1ZM676.27-12.15L681.42-12.25 676.82-27.05 676.47-27.05 671.22-12.25 676.27-12.15ZM728.81-25.05L719.86 0 714.71 0 710.36-12.4 710.01-12.4 705.51 0 700.36 0 692.61-25.05 697.46-25.05 697.91-22.05 703.11-5.15 703.46-5.15 708.36-18.9 706.46-25.05 711.41-25.05 712.01-21.6 717.31-5.15 717.71-5.15 723.56-21.8 724.26-25.05 728.81-25.05ZM745.66-25.05L754.11 0 749.26 0 748.61-3.1 747.71-5.85 742.11-5.9 737.11-5.85 736.16-3.35 735.46 0 730.71 0 740.06-25.05 745.66-25.05ZM742.46-9.55L746.46-9.6 742.91-20.55 742.56-20.55 738.51-9.6 742.46-9.55ZM764.61-25.05L764.36-7.95 764.56 0 759.76 0 759.96-7.5 759.76-25.05 764.61-25.05ZM788.81-25.05L789.06-24.65 788.76-20.8 783.91-21.15 781.81-21.15 781.71-7.95 781.86 0 777.06 0 777.26-7.5 777.16-21.15 775.11-21.15 770.16-20.8 769.81-21.2 770.16-25.05 788.81-25.05ZM801.9-25.35Q805.1-25.35 808.3-24.1L808.3-24.1 807.55-19.55 806.8-19.4Q803.9-21.7 801.3-21.7L801.3-21.7Q799.45-21.7 798.38-20.75 797.3-19.8 797.3-18.55L797.3-18.55Q797.3-17.3 798.43-16.48 799.55-15.65 801.95-14.65L801.95-14.65Q804.2-13.7 805.58-12.88 806.95-12.05 807.95-10.7 808.95-9.35 808.95-7.35L808.95-7.35Q808.95-5.3 807.88-3.55 806.8-1.8 804.68-0.73 802.55 0.35 799.55 0.35L799.55 0.35Q797.75 0.35 795.75-0.05 793.75-0.45 791.9-1.25L791.9-1.25 792.55-6.1 793.1-6.4Q794.55-4.95 796.53-4.13 798.5-3.3 800.15-3.3L800.15-3.3Q801.95-3.3 803.08-4.23 804.2-5.15 804.2-6.5L804.2-6.5Q804.2-7.85 803.05-8.68 801.9-9.5 799.5-10.5L799.5-10.5Q797.35-11.45 795.95-12.28 794.55-13.1 793.58-14.48 792.6-15.85 792.6-17.85L792.6-17.85Q792.6-19.95 793.73-21.65 794.85-23.35 796.98-24.35 799.1-25.35 801.9-25.35L801.9-25.35ZM819.2-25.5L819.75-24.9 818.7-8.6 815.85-8.2 815.3-8.7 815.2-24.7 815.7-25.3 819.2-25.5ZM816.95-4.85Q818.1-4.85 818.75-4.2 819.4-3.55 819.4-2.4L819.4-2.4Q819.4-1.15 818.7-0.43 818 0.3 816.8 0.3L816.8 0.3Q815.6 0.3 814.95-0.38 814.3-1.05 814.3-2.2L814.3-2.2Q814.3-3.4 815.03-4.13 815.75-4.85 816.95-4.85L816.95-4.85Z" opacity="1" transform="matrix(1,0,0,1,0,0)" fill="#000000" class="slogan-text-1" data-fill-palette-color="quaternary" id="text-1"></path></svg></g></svg></g></svg></g></svg></g></svg></g></svg></g></svg></g><defs></defs></svg><rect width="395.52" height="247.2" fill="none" stroke="none" visibility="hidden"></rect></g></svg></g></svg>